<?xml version="1.0" encoding="iso-8859-1"?>
<!-- Generator: Adobe Illustrator 19.0.0, SVG Export Plug-In . SVG Version: 6.00 Build 0)  -->
<svg version="1.1" id="Capa_1" xmlns="http://www.w3.org/2000/svg" xmlns:xlink="http://www.w3.org/1999/xlink" x="0px" y="0px"
	 viewBox="0 0 480.102 480.102" style="enable-background:new 0 0 480.102 480.102;" xml:space="preserve">
<g>
	<g>
		<path d="M479.539,77.111c-0.813-2.057-2.442-3.686-4.5-4.5h0l-176-72c-0.967-0.383-2-0.573-3.04-0.56h-32c-4.418,0-8,3.582-8,8
			v224h-32v-40c0-30.928-25.072-56-56-56h-13.84c26.593-23.284,29.275-63.718,5.991-90.311
			c-23.284-26.593-63.718-29.276-90.311-5.991c-26.593,23.284-29.276,63.718-5.991,90.311c1.863,2.127,3.864,4.129,5.991,5.991H56
			c-30.928,0-56,25.072-56,56v112c0,4.418,3.582,8,8,8h40v160c0,4.418,3.582,8,8,8h112c4.418,0,8-3.582,8-8v-184
			c6.902,5.235,15.338,8.047,24,8h56v176c0,4.418,3.582,8,8,8h32c4.418,0,8-3.582,8-8v-314.64l171.04-69.92
			C479.149,85.867,481.164,81.22,479.539,77.111z M64,88.051c0-26.51,21.49-48,48-48c26.51,0,48,21.49,48,48s-21.49,48-48,48
			C85.49,136.051,64,114.561,64,88.051z M124.48,152.051l-12.48,33.2l-12.48-33.2H124.48z M256,280.051h-56
			c-13.255,0-24-10.745-24-24v-64h-16v272h-40v-168h-16v168H64v-272H48v104H16v-104c0-22.091,17.909-40,40-40h26.48l22,58.8
			c1.507,4.153,6.096,6.298,10.249,4.791c2.228-0.808,3.982-2.563,4.791-4.791l22-58.8H168c22.091,0,40,17.909,40,40v48
			c0,4.418,3.582,8,8,8h40V280.051z M288,464.051h-16v-448h16V464.051z M304,140.131v-120l146.88,59.92L304,140.131z"/>
	</g>
</g>
<g>
	<g>
		<rect x="104" y="232.051" width="16" height="16"/>
	</g>
</g>
<g>
</g>
<g>
</g>
<g>
</g>
<g>
</g>
<g>
</g>
<g>
</g>
<g>
</g>
<g>
</g>
<g>
</g>
<g>
</g>
<g>
</g>
<g>
</g>
<g>
</g>
<g>
</g>
<g>
</g>
</svg>
