<?xml version="1.0" encoding="UTF-8"?>
<svg xmlns="http://www.w3.org/2000/svg" xmlns:xlink="http://www.w3.org/1999/xlink" width="25pt" height="25pt" viewBox="0 0 25 25" version="1.1">
<g id="surface1">
<path style="fill:none;stroke-width:50;stroke-linecap:butt;stroke-linejoin:miter;stroke:rgb(0%,1.568627%,26.666667%);stroke-opacity:1;stroke-miterlimit:10;" d="M 339.534334 266.931809 C 413.309316 209.109171 341.690597 143.12557 341.690597 143.12557 " transform="matrix(0.0507243,0,0,0.0617459,0,0.00632864)"/>
<path style="fill:none;stroke-width:50;stroke-linecap:butt;stroke-linejoin:miter;stroke:rgb(0%,1.568627%,26.666667%);stroke-opacity:1;stroke-miterlimit:10;" d="M 398.600525 333.421515 C 551.695162 213.537601 403.221087 76.635863 403.221087 76.635863 " transform="matrix(0.0507243,0,0,0.0617459,0,0.00632864)"/>
<path style=" stroke:none;fill-rule:nonzero;fill:rgb(0%,1.568627%,26.666667%);fill-opacity:1;" d="M 7.015625 18.976562 L 1.101562 18.976562 C 0.808594 18.976562 0.527344 18.835938 0.320312 18.585938 C 0.117188 18.332031 0 17.992188 0 17.636719 L 0 7.695312 C 0 7.339844 0.117188 7 0.320312 6.75 C 0.527344 6.496094 0.808594 6.355469 1.101562 6.355469 L 7.019531 6.355469 C 7.3125 6.355469 7.59375 6.496094 7.800781 6.75 C 8.003906 7 8.121094 7.339844 8.121094 7.695312 L 8.121094 17.636719 C 8.117188 18.378906 7.625 18.976562 7.015625 18.976562 Z M 7.015625 18.976562 "/>
<path style=" stroke:none;fill-rule:nonzero;fill:rgb(0%,1.568627%,26.666667%);fill-opacity:1;" d="M 13.695312 1.550781 C 13.671875 0.917969 13.351562 0.363281 12.871094 0.125 C 12.390625 -0.117188 11.84375 0.0078125 11.464844 0.4375 L 6.746094 6.367188 L 6.671875 12.71875 L 13.671875 12.71875 C 13.679688 8.753906 13.691406 4.554688 13.695312 1.550781 Z M 13.695312 1.550781 "/>
<path style=" stroke:none;fill-rule:nonzero;fill:rgb(0%,1.568627%,26.666667%);fill-opacity:1;" d="M 13.699219 23.449219 C 13.679688 24.078125 13.355469 24.636719 12.878906 24.875 C 12.398438 25.113281 11.847656 24.988281 11.46875 24.558594 C 9.894531 22.582031 8.320312 20.609375 6.746094 18.636719 C 6.722656 16.519531 6.691406 14.402344 6.664062 12.285156 L 13.664062 12.277344 C 13.679688 16.242188 13.691406 20.441406 13.699219 23.449219 Z M 13.699219 23.449219 "/>
</g>
</svg>
